<svg xmlns="http://www.w3.org/2000/svg" width="306" height="170" viewBox="0 0 306 170" fill="none">
  <g filter="url(#filter0_dddi_20_451)">
    <path d="M70 86C70 77.1634 77.1634 70 86 70H230C238.837 70 246 77.1634 246 86V118C246 126.837 238.837 134 230 134H86C77.1634 134 70 126.837 70 118V86Z" fill="#030303"/>
    <path d="M70 86C70 77.1634 77.1634 70 86 70H230C238.837 70 246 77.1634 246 86V118C246 126.837 238.837 134 230 134H86C77.1634 134 70 126.837 70 118V86Z" fill="url(#paint0_radial_20_451)"/>
    <path d="M70 86C70 77.1634 77.1634 70 86 70H230C238.837 70 246 77.1634 246 86V118C246 126.837 238.837 134 230 134H86C77.1634 134 70 126.837 70 118V86Z" fill="url(#paint1_radial_20_451)"/>
    <path d="M70 86C70 77.1634 77.1634 70 86 70H230C238.837 70 246 77.1634 246 86V118C246 126.837 238.837 134 230 134H86C77.1634 134 70 126.837 70 118V86Z" fill="url(#paint2_radial_20_451)"/>
    <path d="M70 86C70 77.1634 77.1634 70 86 70H230C238.837 70 246 77.1634 246 86V118C246 126.837 238.837 134 230 134H86C77.1634 134 70 126.837 70 118V86Z" fill="url(#paint3_radial_20_451)" fill-opacity="0.5"/>
  </g>
  <defs>
    <filter id="filter0_dddi_20_451" x="0" y="0" width="336" height="234" filterUnits="userSpaceOnUse" color-interpolation-filters="sRGB">
      <feFlood flood-opacity="0" result="BackgroundImageFix"/>
      <feColorMatrix in="SourceAlpha" type="matrix" values="0 0 0 0 0 0 0 0 0 0 0 0 0 0 0 0 0 0 127 0" result="hardAlpha"/>
      <feOffset dx="10" dy="20"/>
      <feGaussianBlur stdDeviation="40"/>
      <feComposite in2="hardAlpha" operator="out"/>
      <feColorMatrix type="matrix" values="0 0 0 0 0.480379 0 0 0 0 0.12776 0 0 0 0 0.929167 0 0 0 0.3 0"/>
      <feBlend mode="normal" in2="BackgroundImageFix" result="effect1_dropShadow_20_451"/>
      <feColorMatrix in="SourceAlpha" type="matrix" values="0 0 0 0 0 0 0 0 0 0 0 0 0 0 0 0 0 0 127 0" result="hardAlpha"/>
      <feOffset dx="-20" dy="-20"/>
      <feGaussianBlur stdDeviation="25"/>
      <feComposite in2="hardAlpha" operator="out"/>
      <feColorMatrix type="matrix" values="0 0 0 0 0.162847 0 0 0 0 0.3685 0 0 0 0 0.558333 0 0 0 0.5 0"/>
      <feBlend mode="normal" in2="effect1_dropShadow_20_451" result="effect2_dropShadow_20_451"/>
      <feColorMatrix in="SourceAlpha" type="matrix" values="0 0 0 0 0 0 0 0 0 0 0 0 0 0 0 0 0 0 127 0" result="hardAlpha"/>
      <feOffset dy="20"/>
      <feGaussianBlur stdDeviation="15"/>
      <feComposite in2="hardAlpha" operator="out"/>
      <feColorMatrix type="matrix" values="0 0 0 0 0.250087 0 0 0 0 0.392151 0 0 0 0 0.895833 0 0 0 0.3 0"/>
      <feBlend mode="normal" in2="effect2_dropShadow_20_451" result="effect3_dropShadow_20_451"/>
      <feBlend mode="normal" in="SourceGraphic" in2="effect3_dropShadow_20_451" result="shape"/>
      <feColorMatrix in="SourceAlpha" type="matrix" values="0 0 0 0 0 0 0 0 0 0 0 0 0 0 0 0 0 0 127 0" result="hardAlpha"/>
      <feOffset/>
      <feGaussianBlur stdDeviation="15"/>
      <feComposite in2="hardAlpha" operator="arithmetic" k2="-1" k3="1"/>
      <feColorMatrix type="matrix" values="0 0 0 0 1 0 0 0 0 1 0 0 0 0 1 0 0 0 0.3 0"/>
      <feBlend mode="normal" in2="shape" result="effect4_innerShadow_20_451"/>
    </filter>
    <radialGradient id="paint0_radial_20_451" cx="0" cy="0" r="1" gradientUnits="userSpaceOnUse" gradientTransform="translate(147 50) rotate(54.3099) scale(87.4185 22.7158)">
      <stop offset="0.212469" stop-color="#181118" stop-opacity="0.53"/>
      <stop offset="1"/>
    </radialGradient>
    <radialGradient id="paint1_radial_20_451" cx="0" cy="0" r="1" gradientUnits="userSpaceOnUse" gradientTransform="translate(104 96) rotate(12.6996) scale(145.561 33.6192)">
      <stop stop-color="#1864B7"/>
      <stop offset="1" stop-color="#173D66" stop-opacity="0.88"/>
    </radialGradient>
    <radialGradient id="paint2_radial_20_451" cx="0" cy="0" r="1" gradientUnits="userSpaceOnUse" gradientTransform="translate(182 62) rotate(94.1347) scale(83.2166 229.683)">
      <stop stop-color="#8528FB"/>
      <stop offset="1" stop-color="#56544A" stop-opacity="0.12"/>
    </radialGradient>
    <radialGradient id="paint3_radial_20_451" cx="0" cy="0" r="1" gradientUnits="userSpaceOnUse" gradientTransform="translate(97 95) rotate(32.5926) scale(72.4017 139.992)">
      <stop stop-color="#8371F3"/>
      <stop offset="1" stop-color="#459CEC" stop-opacity="0"/>
    </radialGradient>
  </defs>
</svg>